<svg width="79" height="106" viewBox="0 0 79 106" fill="none" xmlns="http://www.w3.org/2000/svg">
<path d="M40.662 106C33.6269 105.994 26.8101 103.557 21.366 99.1008C15.9218 94.6451 12.1849 88.4447 10.788 81.5497C9.39115 74.6547 10.4201 67.4888 13.7008 61.2655C16.9814 55.0421 22.312 50.1438 28.79 47.4C36.218 44.384 44.5347 44.413 51.9415 47.4809C59.3483 50.5487 65.2499 56.4087 68.37 63.7936C71.49 71.1786 71.5778 79.4949 68.6144 86.944C65.6509 94.3932 59.8744 100.377 52.534 103.6C48.7784 105.191 44.7405 106.007 40.662 106ZM28.439 65.755L23.422 70.655L40.262 87.1L57.103 70.65L52.086 65.75L40.262 77.3L28.439 65.755Z" fill="white"/>
<path d="M7.825 24.3C12.825 24.3 15.25 21.8 15.25 18.875C15.25 12.45 5.075 14.675 5.075 11.45C5.075 10.35 6 9.45 8.4 9.45C9.95 9.45 11.625 9.9 13.25 10.825L14.5 7.75C12.875 6.725 10.625 6.2 8.425 6.2C3.45 6.2 1.05 8.675 1.05 11.65C1.05 18.15 11.225 15.9 11.225 19.175C11.225 20.25 10.25 21.05 7.85 21.05C5.75 21.05 3.55 20.3 2.075 19.225L0.7 22.275C2.25 23.475 5.05 24.3 7.825 24.3ZM25.4924 24.2C28.3174 24.2 30.5424 22.95 31.5174 20.8L28.4924 19.15C27.7674 20.45 26.6924 21 25.4674 21C23.4924 21 21.9424 19.625 21.9424 17.275C21.9424 14.925 23.4924 13.55 25.4674 13.55C26.6924 13.55 27.7674 14.125 28.4924 15.4L31.5174 13.775C30.5424 11.575 28.3174 10.35 25.4924 10.35C21.1174 10.35 17.9924 13.225 17.9924 17.275C17.9924 21.325 21.1174 24.2 25.4924 24.2ZM38.7379 12.325V10.55H35.0129V24H38.9129V17.65C38.9129 15.075 40.3379 13.9 42.4879 13.9C42.7879 13.9 43.0379 13.925 43.3629 13.95V10.35C41.2879 10.35 39.6879 11.025 38.7379 12.325ZM53.2098 24.2C57.4848 24.2 60.5848 21.325 60.5848 17.275C60.5848 13.225 57.4848 10.35 53.2098 10.35C48.9348 10.35 45.8098 13.225 45.8098 17.275C45.8098 21.325 48.9348 24.2 53.2098 24.2ZM53.2098 21C51.2598 21 49.7598 19.6 49.7598 17.275C49.7598 14.95 51.2598 13.55 53.2098 13.55C55.1598 13.55 56.6348 14.95 56.6348 17.275C56.6348 19.6 55.1598 21 53.2098 21ZM64.4416 24H68.3416V5.45H64.4416V24ZM73.2111 24H77.1111V5.45H73.2111V24Z" fill="white"/>
</svg>
